<svg width="98" height="915" viewBox="0 0 98 915" fill="none" xmlns="http://www.w3.org/2000/svg">
<path opacity="0.25" d="M24.2937 849.977L25.2937 849.977L25.2937 848.977L24.2937 848.977L24.2937 849.977ZM24.2937 869.857L23.2937 869.857L23.2937 870.857L24.2937 870.857L24.2937 869.857ZM97.0937 869.857L98.0937 869.857L98.0937 868.857L97.0937 868.857L97.0937 869.857ZM97.0937 894.077L97.0937 895.077L98.0937 895.077L98.0937 894.077L97.0937 894.077ZM24.2937 894.077L24.2937 893.077L23.2937 893.077L23.2937 894.077L24.2937 894.077ZM24.2937 913.957L24.2937 914.957L25.2937 914.957L25.2937 913.957L24.2937 913.957ZM3.71374 913.957L2.71374 913.957L2.71374 914.957L3.71374 914.957L3.71374 913.957ZM3.71374 849.977L3.71374 848.977L2.71374 848.977L2.71374 849.977L3.71374 849.977ZM23.2937 849.977L23.2937 869.857L25.2937 869.857L25.2937 849.977L23.2937 849.977ZM24.2937 870.857L97.0937 870.857L97.0937 868.857L24.2937 868.857L24.2937 870.857ZM96.0937 869.857L96.0937 894.077L98.0937 894.077L98.0937 869.857L96.0937 869.857ZM97.0937 893.077L24.2937 893.077L24.2937 895.077L97.0937 895.077L97.0937 893.077ZM23.2937 894.077L23.2937 913.957L25.2937 913.957L25.2937 894.077L23.2937 894.077ZM24.2937 912.957L3.71374 912.957L3.71374 914.957L24.2937 914.957L24.2937 912.957ZM4.71374 913.957L4.71374 849.977L2.71374 849.977L2.71374 913.957L4.71374 913.957ZM3.71374 850.977L24.2937 850.977L24.2937 848.977L3.71374 848.977L3.71374 850.977ZM3.71374 786.178L3.71374 785.178L2.71374 785.178L2.71374 786.178L3.71374 786.178ZM24.2937 786.178L25.2937 786.178L25.2937 785.178L24.2937 785.178L24.2937 786.178ZM24.2937 815.018L23.2937 815.018L23.2937 816.018L24.2937 816.018L24.2937 815.018ZM39.8337 815.018L39.8337 816.018L40.8337 816.018L40.8337 815.018L39.8337 815.018ZM39.8337 787.718L39.8337 786.718L38.8337 786.718L38.8337 787.718L39.8337 787.718ZM60.4137 787.718L61.4137 787.718L61.4137 786.718L60.4137 786.718L60.4137 787.718ZM60.4137 815.018L59.4137 815.018L59.4137 816.018L60.4137 816.018L60.4137 815.018ZM76.5137 815.018L76.5137 816.018L77.5137 816.018L77.5137 815.018L76.5137 815.018ZM76.5137 786.178L76.5137 785.178L75.5137 785.178L75.5137 786.178L76.5137 786.178ZM97.0937 786.178L98.0937 786.178L98.0937 785.178L97.0937 785.178L97.0937 786.178ZM97.0937 839.238L97.0937 840.238L98.0937 840.238L98.0937 839.238L97.0937 839.238ZM3.71374 839.238L2.71374 839.238L2.71374 840.238L3.71374 840.238L3.71374 839.238ZM3.71374 787.178L24.2937 787.178L24.2937 785.178L3.71374 785.178L3.71374 787.178ZM23.2937 786.178L23.2937 815.018L25.2937 815.018L25.2937 786.178L23.2937 786.178ZM24.2937 816.018L39.8337 816.018L39.8337 814.018L24.2937 814.018L24.2937 816.018ZM40.8337 815.018L40.8337 787.718L38.8337 787.718L38.8337 815.018L40.8337 815.018ZM39.8337 788.718L60.4137 788.718L60.4137 786.718L39.8337 786.718L39.8337 788.718ZM59.4137 787.718L59.4137 815.018L61.4137 815.018L61.4137 787.718L59.4137 787.718ZM60.4137 816.018L76.5137 816.018L76.5137 814.018L60.4137 814.018L60.4137 816.018ZM77.5137 815.018L77.5137 786.178L75.5137 786.178L75.5137 815.018L77.5137 815.018ZM76.5137 787.178L97.0937 787.178L97.0937 785.178L76.5137 785.178L76.5137 787.178ZM96.0937 786.178L96.0937 839.238L98.0937 839.238L98.0937 786.178L96.0937 786.178ZM97.0937 838.238L3.71374 838.238L3.71374 840.238L97.0937 840.238L97.0937 838.238ZM4.71374 839.238L4.71374 786.178L2.71374 786.178L2.71374 839.238L4.71374 839.238ZM65.8737 703.682L65.8737 702.682L63.298 702.682L65.199 704.42L65.8737 703.682ZM94.5737 703.682L95.5138 703.341L95.2748 702.682L94.5737 702.682L94.5737 703.682ZM85.1937 760.802L85.9009 761.509L85.9078 761.502L85.1937 760.802ZM69.5137 771.302L69.8851 772.231L69.8938 772.227L69.9024 772.224L69.5137 771.302ZM32.4137 771.162L32.0181 772.081L32.0301 772.086L32.4137 771.162ZM16.7337 760.802L16.0335 761.516L16.0343 761.517L16.7337 760.802ZM6.93373 703.682L6.93373 702.682L6.25968 702.682L6.00679 703.307L6.93373 703.682ZM35.9137 703.682L36.5423 704.46L38.7419 702.682L35.9137 702.682L35.9137 703.682ZM31.8537 741.622L31.1097 742.29L31.1157 742.297L31.1218 742.304L31.8537 741.622ZM69.2337 742.182L69.9608 742.869L69.9628 742.867L69.2337 742.182ZM65.8737 704.682L94.5737 704.682L94.5737 702.682L65.8737 702.682L65.8737 704.682ZM93.6336 704.023C96.6961 712.468 98.1937 719.342 98.1937 724.682L100.194 724.682C100.194 719.009 98.6114 711.883 95.5138 703.341L93.6336 704.023ZM98.1937 724.682C98.1937 739.007 93.612 750.787 84.4797 760.102L85.9078 761.502C95.4421 751.777 100.194 739.478 100.194 724.682L98.1937 724.682ZM84.4866 760.095C80.1001 764.482 74.9822 767.91 69.125 770.381L69.9024 772.224C75.9919 769.655 81.3274 766.083 85.9008 761.509L84.4866 760.095ZM69.1424 770.374C63.1865 772.756 57.1989 773.942 51.1737 773.942L51.1737 775.942C57.4686 775.942 63.7076 774.702 69.8851 772.231L69.1424 770.374ZM51.1737 773.942C44.8681 773.942 38.7449 772.709 32.7973 770.239L32.0301 772.086C38.2159 774.655 44.5994 775.942 51.1737 775.942L51.1737 773.942ZM32.8094 770.244C26.847 767.675 21.7255 764.289 17.4332 760.088L16.0343 761.517C20.5153 765.903 25.8472 769.422 32.0181 772.081L32.8094 770.244ZM17.434 760.088C7.92533 750.763 3.17374 739.263 3.17374 725.522L1.17374 725.522C1.17374 739.782 6.12881 751.802 16.0335 761.516L17.434 760.088ZM3.17374 725.522C3.17374 718.959 4.72359 711.808 7.86068 704.057L6.00679 703.307C2.79722 711.237 1.17374 718.645 1.17374 725.522L3.17374 725.522ZM6.93373 704.682L35.9137 704.682L35.9137 702.682L6.93373 702.682L6.93373 704.682ZM35.2852 702.904C28.2424 708.597 24.6937 715.926 24.6937 724.822L26.6937 724.822C26.6937 716.545 29.9584 709.781 36.5423 704.46L35.2852 702.904ZM24.6937 724.822C24.6937 731.675 26.8247 737.518 31.1097 742.29L32.5978 740.954C28.6694 736.579 26.6937 731.223 26.6937 724.822L24.6937 724.822ZM31.1218 742.304C36.3609 747.931 43.0243 750.742 51.0337 750.742L51.0337 748.742C43.5499 748.742 37.4266 746.14 32.5856 740.941L31.1218 742.304ZM51.0337 750.742C58.6626 750.742 64.9988 748.123 69.9608 742.869L68.5067 741.496C63.9487 746.322 58.1515 748.742 51.0337 748.742L51.0337 750.742ZM69.9628 742.867C74.4509 738.086 76.6737 732.045 76.6737 724.822L74.6737 724.822C74.6737 731.6 72.6033 737.132 68.5047 741.498L69.9628 742.867ZM76.6737 724.822C76.6737 716.394 73.2682 709.088 66.5485 702.944L65.199 704.42C71.546 710.223 74.6737 717.01 74.6737 724.822L76.6737 724.822ZM3.71373 664.081L3.71373 663.081L2.71373 663.081L2.71373 664.081L3.71373 664.081ZM38.5737 664.081L38.5737 665.081L39.5737 665.081L39.5737 664.081L38.5737 664.081ZM38.5737 629.081L39.5737 629.081L39.5737 628.081L38.5737 628.081L38.5737 629.081ZM3.71373 629.081L2.71373 629.081L2.71373 630.081L3.71373 630.081L3.71373 629.081ZM3.71373 604.721L3.71373 603.721L2.71373 603.721L2.71373 604.721L3.71373 604.721ZM97.0937 604.721L98.0937 604.721L98.0937 603.721L97.0937 603.721L97.0937 604.721ZM97.0937 629.081L97.0937 630.081L98.0937 630.081L98.0937 629.081L97.0937 629.081ZM59.2937 629.081L59.2937 628.081L58.2937 628.081L58.2937 629.081L59.2937 629.081ZM59.2937 664.081L58.2937 664.081L58.2937 665.081L59.2937 665.081L59.2937 664.081ZM97.0937 664.081L98.0937 664.081L98.0937 663.081L97.0937 663.081L97.0937 664.081ZM97.0937 688.301L97.0937 689.301L98.0937 689.301L98.0937 688.301L97.0937 688.301ZM3.71373 688.301L2.71373 688.301L2.71373 689.301L3.71373 689.301L3.71373 688.301ZM3.71373 665.081L38.5737 665.081L38.5737 663.081L3.71373 663.081L3.71373 665.081ZM39.5737 664.081L39.5737 629.081L37.5737 629.081L37.5737 664.081L39.5737 664.081ZM38.5737 628.081L3.71373 628.081L3.71373 630.081L38.5737 630.081L38.5737 628.081ZM4.71373 629.081L4.71373 604.721L2.71373 604.721L2.71373 629.081L4.71373 629.081ZM3.71373 605.721L97.0937 605.721L97.0937 603.721L3.71373 603.721L3.71373 605.721ZM96.0937 604.721L96.0937 629.081L98.0937 629.081L98.0937 604.721L96.0937 604.721ZM97.0937 628.081L59.2937 628.081L59.2937 630.081L97.0937 630.081L97.0937 628.081ZM58.2937 629.081L58.2937 664.081L60.2937 664.081L60.2937 629.081L58.2937 629.081ZM59.2937 665.081L97.0937 665.081L97.0937 663.081L59.2937 663.081L59.2937 665.081ZM96.0937 664.081L96.0937 688.301L98.0937 688.301L98.0937 664.081L96.0937 664.081ZM97.0937 687.301L3.71373 687.301L3.71373 689.301L97.0937 689.301L97.0937 687.301ZM4.71373 688.301L4.71373 664.081L2.71373 664.081L2.71373 688.301L4.71373 688.301ZM97.0937 560.858L98.0937 560.858L98.0937 559.858L97.0937 559.858L97.0937 560.858ZM97.0937 585.078L97.0937 586.078L98.0937 586.078L98.0937 585.078L97.0937 585.078ZM3.71373 585.078L2.71373 585.078L2.71373 586.078L3.71373 586.078L3.71373 585.078ZM3.71373 560.858L3.09778 560.07L2.71373 560.371L2.71373 560.858L3.71373 560.858ZM60.8337 516.198L61.4497 516.986L63.7363 515.198L60.8337 515.198L60.8337 516.198ZM3.71372 516.198L2.71372 516.198L2.71372 517.198L3.71372 517.198L3.71372 516.198ZM3.71372 491.978L3.71372 490.978L2.71372 490.978L2.71372 491.978L3.71372 491.978ZM97.0937 491.978L98.0937 491.978L98.0937 490.978L97.0937 490.978L97.0937 491.978ZM97.0937 516.198L97.7097 516.986L98.0937 516.686L98.0937 516.198L97.0937 516.198ZM39.9737 560.858L39.3578 560.07L37.0712 561.858L39.9737 561.858L39.9737 560.858ZM96.0937 560.858L96.0937 585.078L98.0937 585.078L98.0937 560.858L96.0937 560.858ZM97.0937 584.078L3.71373 584.078L3.71373 586.078L97.0937 586.078L97.0937 584.078ZM4.71373 585.078L4.71373 560.858L2.71373 560.858L2.71373 585.078L4.71373 585.078ZM4.32967 561.646L61.4497 516.986L60.2178 515.41L3.09778 560.07L4.32967 561.646ZM60.8337 515.198L3.71372 515.198L3.71372 517.198L60.8337 517.198L60.8337 515.198ZM4.71372 516.198L4.71372 491.978L2.71372 491.978L2.71372 516.198L4.71372 516.198ZM3.71372 492.978L97.0937 492.978L97.0937 490.978L3.71372 490.978L3.71372 492.978ZM96.0937 491.978L96.0937 516.198L98.0937 516.198L98.0937 491.978L96.0937 491.978ZM96.4778 515.41L39.3578 560.07L40.5897 561.646L97.7097 516.986L96.4778 515.41ZM39.9737 561.858L97.0937 561.858L97.0937 559.858L39.9737 559.858L39.9737 561.858ZM85.3337 388.282L86.058 387.592L86.0544 387.589L85.3337 388.282ZM85.3337 461.922L86.0544 462.615L86.058 462.611L85.3337 461.922ZM31.5737 472.982L31.1951 473.908L31.2072 473.912L31.5737 472.982ZM15.4737 461.922L16.2015 461.236L16.198 461.232L15.4737 461.922ZM15.4737 388.282L16.198 388.971L16.2015 388.968L15.4737 388.282ZM31.5737 377.362L31.9403 378.292L31.9524 378.287L31.5737 377.362ZM32.5537 444.002L33.2676 443.302L33.2608 443.295L32.5537 444.002ZM68.2537 444.002L67.5336 443.308L67.5332 443.309L68.2537 444.002ZM68.3937 406.342L69.1008 405.635L68.3937 406.342ZM32.5537 406.342L31.8334 405.648L31.8274 405.655L32.5537 406.342ZM50.4737 374.582C64.02 374.582 75.3782 379.375 84.613 388.975L86.0544 387.589C76.4359 377.589 64.5541 372.582 50.4737 372.582L50.4737 374.582ZM84.6094 388.971C93.6528 398.471 98.1937 410.489 98.1937 425.102L100.194 425.102C100.194 410.035 95.4947 397.506 86.058 387.592L84.6094 388.971ZM98.1937 425.102C98.1937 439.715 93.6528 451.732 84.6094 461.232L86.058 462.611C95.4947 452.698 100.194 440.169 100.194 425.102L98.1937 425.102ZM84.613 461.229C75.3782 470.829 64.02 475.622 50.4737 475.622L50.4737 477.622C64.5541 477.622 76.4359 472.615 86.0544 462.615L84.613 461.229ZM50.4737 475.622C44.1627 475.622 37.9869 474.434 31.9403 472.052L31.2072 473.912C37.4806 476.384 43.9047 477.622 50.4737 477.622L50.4737 475.622ZM31.9524 472.056C25.9248 469.591 20.6771 465.986 16.2015 461.236L14.7459 462.608C19.417 467.565 24.9027 471.333 31.1951 473.907L31.9524 472.056ZM16.198 461.232C7.15466 451.732 2.61372 439.715 2.61372 425.102L0.613723 425.102C0.613724 440.169 5.31279 452.698 14.7494 462.611L16.198 461.232ZM2.61372 425.102C2.61372 410.489 7.15466 398.471 16.198 388.971L14.7494 387.592C5.31279 397.506 0.613722 410.035 0.613723 425.102L2.61372 425.102ZM16.2015 388.968C20.6746 384.221 25.9182 380.665 31.9402 378.292L31.2072 376.432C24.9092 378.913 19.4195 382.636 14.7459 387.596L16.2015 388.968ZM31.9524 378.287C37.9963 375.815 44.1679 374.582 50.4737 374.582L50.4737 372.582C43.8995 372.582 37.4712 373.869 31.1951 376.436L31.9524 378.287ZM24.1337 425.102C24.1337 432.993 26.6939 439.556 31.8466 444.709L33.2608 443.295C28.5203 438.554 26.1337 432.517 26.1337 425.102L24.1337 425.102ZM31.8399 444.702C36.8943 449.854 43.271 452.422 50.8937 452.422L50.8937 450.422C43.7698 450.422 37.9198 448.043 33.2675 443.302L31.8399 444.702ZM50.8937 452.422C57.9813 452.422 64.0274 449.836 68.9743 444.695L67.5332 443.309C62.9601 448.061 57.4329 450.422 50.8937 450.422L50.8937 452.422ZM68.9738 444.696C74.1093 439.367 76.6737 432.814 76.6737 425.102L74.6737 425.102C74.6737 432.323 72.2915 438.371 67.5336 443.308L68.9738 444.696ZM76.6737 425.102C76.6737 417.217 74.1641 410.698 69.1008 405.635L67.6866 407.049C72.3301 411.692 74.6737 417.68 74.6737 425.102L76.6737 425.102ZM69.1008 405.635C63.88 400.414 57.6549 397.782 50.4737 397.782L50.4737 399.782C57.1058 399.782 62.8275 402.19 67.6866 407.049L69.1008 405.635ZM50.4737 397.782C43.1129 397.782 36.8782 400.409 31.8334 405.648L33.274 407.036C37.936 402.194 43.6479 399.782 50.4737 399.782L50.4737 397.782ZM31.8274 405.655C26.7027 411.069 24.1337 417.57 24.1337 425.102L26.1337 425.102C26.1337 418.074 28.5114 412.068 33.28 407.029L31.8274 405.655ZM3.71372 358.125L2.71372 358.125L2.71372 359.125L3.71372 359.125L3.71372 358.125ZM3.71372 333.905L3.71372 332.905L2.71372 332.905L2.71372 333.905L3.71372 333.905ZM76.5137 333.905L76.5137 334.905L77.5137 334.905L77.5137 333.905L76.5137 333.905ZM76.5137 304.785L76.5137 303.785L75.5137 303.785L75.5137 304.785L76.5137 304.785ZM97.0937 304.785L98.0937 304.785L98.0937 303.785L97.0937 303.785L97.0937 304.785ZM97.0937 358.125L97.0937 359.125L98.0937 359.125L98.0937 358.125L97.0937 358.125ZM4.71372 358.125L4.71372 333.905L2.71372 333.905L2.71372 358.125L4.71372 358.125ZM3.71372 334.905L76.5137 334.905L76.5137 332.905L3.71372 332.905L3.71372 334.905ZM77.5137 333.905L77.5137 304.785L75.5137 304.785L75.5137 333.905L77.5137 333.905ZM76.5137 305.785L97.0937 305.785L97.0937 303.785L76.5137 303.785L76.5137 305.785ZM96.0937 304.785L96.0937 358.125L98.0937 358.125L98.0937 304.785L96.0937 304.785ZM97.0937 357.125L3.71372 357.125L3.71372 359.125L97.0937 359.125L97.0937 357.125ZM85.3337 213.419L86.058 212.729L86.0544 212.725L85.3337 213.419ZM85.3337 287.059L86.0544 287.752L86.058 287.748L85.3337 287.059ZM31.5737 298.119L31.1951 299.044L31.2072 299.049L31.5737 298.119ZM15.4737 287.059L16.2015 286.373L16.198 286.369L15.4737 287.059ZM15.4737 213.419L16.198 214.108L16.2015 214.104L15.4737 213.419ZM31.5737 202.499L31.9403 203.429L31.9524 203.424L31.5737 202.499ZM32.5537 269.139L33.2676 268.438L33.2608 268.432L32.5537 269.139ZM68.2537 269.139L67.5336 268.445L67.5331 268.445L68.2537 269.139ZM68.3937 231.479L69.1008 230.772L68.3937 231.479ZM32.5537 231.479L31.8334 230.785L31.8274 230.791L32.5537 231.479ZM50.4737 199.719C64.02 199.719 75.3782 204.511 84.613 214.112L86.0544 212.725C76.4359 202.726 64.5541 197.719 50.4737 197.719L50.4737 199.719ZM84.6094 214.108C93.6528 223.608 98.1937 235.625 98.1937 250.239L100.194 250.239C100.194 235.172 95.4947 222.642 86.058 212.729L84.6094 214.108ZM98.1937 250.239C98.1937 264.852 93.6528 276.869 84.6094 286.369L86.058 287.748C95.4947 277.835 100.194 265.305 100.194 250.239L98.1937 250.239ZM84.613 286.365C75.3782 295.966 64.02 300.759 50.4737 300.759L50.4737 302.759C64.5541 302.759 76.4359 297.751 86.0544 287.752L84.613 286.365ZM50.4737 300.759C44.1627 300.759 37.9869 299.57 31.9402 297.188L31.2072 299.049C37.4806 301.52 43.9047 302.759 50.4737 302.759L50.4737 300.759ZM31.9524 297.193C25.9248 294.727 20.6771 291.122 16.2015 286.373L14.7459 287.744C19.417 292.701 24.9026 296.47 31.1951 299.044L31.9524 297.193ZM16.198 286.369C7.15466 276.869 2.61372 264.852 2.61372 250.239L0.613715 250.239C0.613716 265.305 5.31278 277.835 14.7494 287.748L16.198 286.369ZM2.61372 250.239C2.61371 235.625 7.15465 223.608 16.198 214.108L14.7494 212.729C5.31278 222.642 0.613715 235.172 0.613715 250.239L2.61372 250.239ZM16.2015 214.104C20.6746 209.357 25.9182 205.801 31.9402 203.429L31.2072 201.568C24.9092 204.049 19.4195 207.773 14.7459 212.733L16.2015 214.104ZM31.9524 203.424C37.9963 200.952 44.1679 199.719 50.4737 199.719L50.4737 197.719C43.8995 197.719 37.4712 199.006 31.1951 201.573L31.9524 203.424ZM24.1337 250.239C24.1337 258.13 26.6939 264.693 31.8466 269.846L33.2608 268.432C28.5202 263.691 26.1337 257.654 26.1337 250.239L24.1337 250.239ZM31.8399 269.839C36.8943 274.991 43.271 277.559 50.8937 277.559L50.8937 275.559C43.7698 275.559 37.9198 273.18 33.2675 268.438L31.8399 269.839ZM50.8937 277.559C57.9813 277.559 64.0274 274.973 68.9743 269.832L67.5331 268.445C62.9601 273.198 57.4328 275.559 50.8937 275.559L50.8937 277.559ZM68.9738 269.833C74.1093 264.503 76.6737 257.951 76.6737 250.239L74.6737 250.239C74.6737 257.46 72.2915 263.507 67.5336 268.445L68.9738 269.833ZM76.6737 250.239C76.6737 242.353 74.1641 235.835 69.1008 230.772L67.6866 232.186C72.33 236.829 74.6737 242.817 74.6737 250.239L76.6737 250.239ZM69.1008 230.772C63.88 225.551 57.6549 222.919 50.4737 222.919L50.4737 224.919C57.1058 224.919 62.8274 227.327 67.6866 232.186L69.1008 230.772ZM50.4737 222.919C43.1129 222.919 36.8782 225.546 31.8334 230.785L33.274 232.172C37.936 227.331 43.6479 224.919 50.4737 224.919L50.4737 222.919ZM31.8274 230.791C26.7027 236.206 24.1337 242.706 24.1337 250.239L26.1337 250.239C26.1337 243.211 28.5114 237.205 33.28 232.166L31.8274 230.791ZM63.0737 138.462L63.0737 139.462L64.0737 139.462L64.0737 138.462L63.0737 138.462ZM44.1737 138.462L43.1737 138.462L43.1737 139.462L44.1737 139.462L44.1737 138.462ZM44.1737 90.3018L44.1737 89.3018L43.1737 89.3018L43.1737 90.3018L44.1737 90.3018ZM68.6737 93.8018L68.3457 94.7465L68.3535 94.7491L68.6737 93.8018ZM86.1737 105.282L85.4418 105.963L85.4427 105.964L86.1737 105.282ZM84.0737 174.022L83.3738 173.307L83.3666 173.315L84.0737 174.022ZM15.3337 173.462L16.048 172.762L16.0408 172.755L15.3337 173.462ZM7.91371 112.002L7.06204 111.478L7.05929 111.482L7.91371 112.002ZM27.0937 95.3417L28.0183 94.9608L27.6214 93.9977L26.6753 94.4335L27.0937 95.3417ZM36.6137 118.442L36.9851 119.37L37.9233 118.995L37.5383 118.061L36.6137 118.442ZM27.2337 125.162L26.4694 124.517L26.4623 124.525L27.2337 125.162ZM29.0537 154.142L29.7608 153.435L29.0537 154.142ZM70.6337 154.842L69.9483 154.114L69.9463 154.115L70.6337 154.842ZM73.4337 124.322L72.6597 124.955L72.6672 124.964L73.4337 124.322ZM63.0737 118.582L63.2415 117.596L62.0737 117.397L62.0737 118.582L63.0737 118.582ZM63.0737 137.462L44.1737 137.462L44.1737 139.462L63.0737 139.462L63.0737 137.462ZM45.1737 138.462L45.1737 90.3018L43.1737 90.3018L43.1737 138.462L45.1737 138.462ZM44.1737 91.3018C53.712 91.3018 61.761 92.4601 68.3457 94.7465L69.0017 92.8571C62.1465 90.4768 53.8621 89.3018 44.1737 89.3018L44.1737 91.3018ZM68.3535 94.7491C74.8139 96.9329 80.5082 100.664 85.4418 105.963L86.9056 104.6C81.7593 99.0728 75.7868 95.1506 68.9939 92.8544L68.3535 94.7491ZM85.4427 105.964C93.0797 114.147 96.9337 124.854 96.9337 138.182L98.9337 138.182C98.9337 124.443 94.9478 113.217 86.9048 104.599L85.4427 105.964ZM96.9337 138.182C96.9337 152.796 92.3932 164.47 83.3739 173.307L84.7736 174.736C94.2343 165.466 98.9337 153.247 98.9337 138.182L96.9337 138.182ZM83.3666 173.315C74.6078 182.073 63.6218 186.462 50.3337 186.462L50.3337 188.462C64.1123 188.462 75.6196 183.89 84.7808 174.729L83.3666 173.315ZM50.3337 186.462C36.3903 186.462 24.9894 181.886 16.0479 172.762L14.6195 174.162C23.9713 183.704 35.9038 188.462 50.3337 188.462L50.3337 186.462ZM16.0408 172.755C7.1121 163.826 2.61371 152.01 2.61371 137.202L0.61371 137.202C0.613711 152.447 5.26198 164.804 14.6266 174.169L16.0408 172.755ZM2.61371 137.202C2.61371 127.451 4.68262 119.24 8.76813 112.521L7.05929 111.482C2.7448 118.577 0.61371 127.166 0.61371 137.202L2.61371 137.202ZM8.76537 112.526C13.1347 105.426 19.3715 100 27.5121 96.25L26.6753 94.4335C18.2026 98.3367 11.6528 104.018 7.06205 111.478L8.76537 112.526ZM26.1692 95.7228L35.6892 118.823L37.5383 118.061L28.0183 94.9608L26.1692 95.7228ZM36.2423 117.513C32.3613 119.066 29.0983 121.401 26.4694 124.517L27.998 125.807C30.4091 122.949 33.3994 120.805 36.9851 119.37L36.2423 117.513ZM26.4623 124.525C23.231 128.442 21.6137 133.008 21.6137 138.182L23.6137 138.182C23.6137 133.462 25.0764 129.348 28.0051 125.798L26.4623 124.525ZM21.6137 138.182C21.6137 144.78 23.8565 150.359 28.3466 154.849L29.7608 153.435C25.6643 149.338 23.6137 144.277 23.6137 138.182L21.6137 138.182ZM28.3466 154.849C33.9773 160.48 41.3872 163.262 50.4737 163.262L50.4737 161.262C41.8269 161.262 34.9568 158.631 29.7608 153.435L28.3466 154.849ZM50.4737 163.262C58.9038 163.262 65.8822 160.716 71.3211 155.568L69.9463 154.115C64.9319 158.861 58.4703 161.262 50.4737 161.262L50.4737 163.262ZM71.3191 155.57C76.2923 150.889 78.7737 144.927 78.7737 137.762L76.7737 137.762C76.7737 144.41 74.4952 149.834 69.9484 154.114L71.3191 155.57ZM78.7737 137.762C78.7737 132.074 77.2758 127.35 74.2002 123.68L72.6672 124.964C75.3782 128.2 76.7737 132.436 76.7737 137.762L78.7737 137.762ZM74.2077 123.689C71.5165 120.399 67.836 118.378 63.2415 117.596L62.9059 119.568C67.0847 120.279 70.3109 122.084 72.6598 124.955L74.2077 123.689ZM62.0737 118.582L62.0737 138.462L64.0737 138.462L64.0737 118.582L62.0737 118.582ZM97.0937 57.7791L97.0937 58.7791L98.0937 58.7791L98.0937 57.7791L97.0937 57.7791ZM52.2937 57.7791L52.2937 56.7791L51.9805 56.7791L51.7233 56.9578L52.2937 57.7791ZM3.71371 91.5191L2.71371 91.5191L2.71371 93.4312L4.28415 92.3405L3.71371 91.5191ZM3.7137 62.5391L3.14449 61.7169L2.7137 62.0151L2.7137 62.5391L3.7137 62.5391ZM29.1937 44.8991L29.7629 45.7213L30.9747 44.8824L29.7474 44.0663L29.1937 44.8991ZM3.7137 27.9591L2.7137 27.9591L2.7137 28.4951L3.16006 28.7919L3.7137 27.9591ZM3.7137 -1.44092L4.29671 -2.25336L2.7137 -3.38928L2.7137 -1.44092L3.7137 -1.44092ZM52.2937 33.4191L51.7107 34.2316L51.972 34.4191L52.2937 34.4191L52.2937 33.4191ZM97.0937 33.4191L98.0937 33.4191L98.0937 32.4191L97.0937 32.4191L97.0937 33.4191ZM97.0937 56.7791L52.2937 56.7791L52.2937 58.7791L97.0937 58.7791L97.0937 56.7791ZM51.7233 56.9578L3.14327 90.6978L4.28415 92.3405L52.8641 58.6005L51.7233 56.9578ZM4.71371 91.5191L4.7137 62.5391L2.7137 62.5391L2.71371 91.5191L4.71371 91.5191ZM4.28292 63.3613L29.7629 45.7213L28.6245 44.0769L3.14449 61.7169L4.28292 63.3613ZM29.7474 44.0663L4.26735 27.1263L3.16006 28.7919L28.6401 45.7319L29.7474 44.0663ZM4.7137 27.9591L4.7137 -1.44092L2.7137 -1.44092L2.7137 27.9591L4.7137 27.9591ZM3.13069 -0.628418L51.7107 34.2316L52.8767 32.6066L4.29671 -2.25336L3.13069 -0.628418ZM52.2937 34.4191L97.0937 34.4191L97.0937 32.4191L52.2937 32.4191L52.2937 34.4191ZM96.0937 33.4191L96.0937 57.7791L98.0937 57.7791L98.0937 33.4191L96.0937 33.4191Z" fill="url(#paint0_linear)"/>
<defs>
<linearGradient id="paint0_linear" x1="-0.906274" y1="372.761" x2="99.0937" y2="372.761" gradientUnits="userSpaceOnUse">
<stop stop-color="white"/>
<stop offset="1" stop-color="white" stop-opacity="0"/>
</linearGradient>
</defs>
</svg>
